<svg width="122" height="122" viewBox="0 0 122 122" fill="none" xmlns="http://www.w3.org/2000/svg">
<circle cx="61" cy="61" r="61" fill="#7EE0F7" fill-opacity="0.19"/>
<path d="M47.8204 79.8282H43.1114C42.4936 79.8281 41.8817 79.9498 41.3109 80.1862C40.74 80.4227 40.2214 80.7692 39.7845 81.2062C38.9022 82.0886 38.4064 83.2854 38.4062 84.5332V84.5351V37.4649C38.4064 36.2166 38.9022 35.0195 39.7845 34.1365C40.6675 33.2538 41.8649 32.7579 43.1134 32.7578H47.8205L47.8204 79.8282Z" stroke="#6FE1FC" stroke-width="3.51562" stroke-miterlimit="10" stroke-linecap="round" stroke-linejoin="round"/>
<path d="M83.5937 89.2421H43.1113C40.513 89.2421 38.4062 87.1357 38.4062 84.537V84.5332C38.4062 81.9347 40.5132 79.8281 43.1113 79.8281H83.5936L83.5937 89.2421Z" stroke="#6FE1FC" stroke-width="3.51562" stroke-miterlimit="10" stroke-linecap="round" stroke-linejoin="round"/>
<path d="M57.2345 51.5859H74.1798M59.1172 60.9999H72.2969M47.8203 32.7578H83.5938V79.8282H47.8203V32.7578Z" stroke="#6FE1FC" stroke-width="3.51562" stroke-miterlimit="10" stroke-linecap="round" stroke-linejoin="round"/>
</svg>
